<svg width="18" height="18" viewBox="0 0 18 18" fill="none" xmlns="http://www.w3.org/2000/svg">
<path d="M9 8.799C7.7625 8.799 6.73434 8.38143 5.91553 7.54627C5.09691 6.71092 4.68759 5.662 4.68759 4.3995C4.68759 3.13701 5.09691 2.08809 5.91553 1.25274C6.73434 0.41758 7.7625 0 9 0C10.2375 0 11.2657 0.41758 12.0845 1.25274C12.9031 2.08809 13.3124 3.13701 13.3124 4.3995C13.3124 5.662 12.9031 6.71092 12.0845 7.54627C11.2657 8.38143 10.2375 8.799 9 8.799ZM0 18V15.1307C0 14.4292 0.173438 13.8155 0.520312 13.2895C0.867187 12.7634 1.31878 12.3633 1.87509 12.0892C3.10003 11.5091 4.29684 11.0739 5.46553 10.7837C6.63441 10.4935 7.81256 10.3484 9 10.3484C10.1874 10.3484 11.3624 10.4967 12.5249 10.7932C13.6874 11.0897 14.8807 11.5229 16.1047 12.093C16.6773 12.3688 17.1363 12.7687 17.4817 13.2926C17.8272 13.8166 18 14.4292 18 15.1307V18H0ZM1.87509 16.087H16.1249V15.1307C16.1249 14.8566 16.0484 14.5983 15.8954 14.356C15.7422 14.1136 15.55 13.9319 15.3188 13.8108C14.1813 13.2433 13.1093 12.8432 12.103 12.6106C11.0969 12.3778 10.0626 12.2614 9 12.2614C7.93744 12.2614 6.89681 12.3778 5.87813 12.6106C4.85944 12.8432 3.78759 13.2433 2.66259 13.8108C2.43122 13.9319 2.24212 14.1136 2.09531 14.356C1.9485 14.5983 1.87509 14.8566 1.87509 15.1307V16.087ZM9 6.88633C9.69375 6.88633 10.2734 6.64875 10.739 6.17359C11.2047 5.69863 11.4376 5.10726 11.4376 4.3995C11.4376 3.69174 11.2047 3.10038 10.739 2.62541C10.2734 2.15026 9.69375 1.91268 9 1.91268C8.30625 1.91268 7.72659 2.15026 7.26103 2.62541C6.79528 3.10038 6.56241 3.69174 6.56241 4.3995C6.56241 5.10726 6.79528 5.69863 7.26103 6.17359C7.72659 6.64875 8.30625 6.88633 9 6.88633Z" fill="white"/>
</svg>
