<svg width="44" height="36" viewBox="0 0 44 36" fill="none" xmlns="http://www.w3.org/2000/svg">
<path d="M15.4959 27.7778C14.8961 30.1481 13.9964 32.2222 12.7967 34C7.99819 32.2222 4.39928 29.8519 2 26.8889C2 18.5926 3.79946 11.4815 7.39837 5.55556C10.3975 3.77778 13.3966 2.59259 16.3957 2L18.1951 5.55556C20.5944 4.96296 22.9937 4.96296 25.393 5.55556L27.1924 2C30.1915 2.59259 33.1906 3.77778 36.1897 5.55556C39.7886 11.4815 41.5881 18.5926 41.5881 26.8889C39.1888 29.8519 35.5899 32.2222 30.7913 34C29.5917 32.2222 28.692 30.1481 28.0921 27.7778M12.7967 26.8889C18.7949 29.2593 24.7931 29.2593 30.7913 26.8889" stroke="white" stroke-width="3" stroke-linecap="round" stroke-linejoin="round"/>
<path d="M14.5963 19.7782C15.5901 19.7782 16.3958 18.9823 16.3958 18.0004C16.3958 17.0186 15.5901 16.2227 14.5963 16.2227C13.6025 16.2227 12.7969 17.0186 12.7969 18.0004C12.7969 18.9823 13.6025 19.7782 14.5963 19.7782Z" stroke="white" stroke-width="4" stroke-linecap="round" stroke-linejoin="round"/>
<path d="M28.9909 19.7782C29.9847 19.7782 30.7903 18.9823 30.7903 18.0004C30.7903 17.0186 29.9847 16.2227 28.9909 16.2227C27.9971 16.2227 27.1914 17.0186 27.1914 18.0004C27.1914 18.9823 27.9971 19.7782 28.9909 19.7782Z" stroke="white" stroke-width="4" stroke-linecap="round" stroke-linejoin="round"/>
</svg>
