<svg width="32" height="32" viewBox="0 0 32 32" fill="none" xmlns="http://www.w3.org/2000/svg">
<path d="M4.9375 26.7917H9.75V12.3333H4.9375V26.7917ZM10.0625 7.875C10.0486 7.15278 9.79861 6.55556 9.3125 6.08333C8.82639 5.61111 8.18056 5.375 7.375 5.375C6.56944 5.375 5.91319 5.61111 5.40625 6.08333C4.89931 6.55556 4.64583 7.15278 4.64583 7.875C4.64583 8.58333 4.89236 9.17708 5.38542 9.65625C5.87847 10.1354 6.52083 10.375 7.3125 10.375H7.33333C8.15278 10.375 8.8125 10.1354 9.3125 9.65625C9.8125 9.17708 10.0625 8.58333 10.0625 7.875ZM22.25 26.7917H27.0625V18.5C27.0625 16.3611 26.5556 14.7431 25.5417 13.6458C24.5278 12.5486 23.1875 12 21.5208 12C19.6319 12 18.1806 12.8125 17.1667 14.4375H17.2083V12.3333H12.3958C12.4375 13.25 12.4375 18.0694 12.3958 26.7917H17.2083V18.7083C17.2083 18.1806 17.2569 17.7917 17.3542 17.5417C17.5625 17.0556 17.875 16.6424 18.2917 16.3021C18.7083 15.9618 19.2222 15.7917 19.8333 15.7917C21.4444 15.7917 22.25 16.8819 22.25 19.0625V26.7917ZM32 6V26C32 27.6528 31.4132 29.066 30.2396 30.2396C29.066 31.4132 27.6528 32 26 32H6C4.34722 32 2.93403 31.4132 1.76042 30.2396C0.586806 29.066 0 27.6528 0 26V6C0 4.34722 0.586806 2.93403 1.76042 1.76042C2.93403 0.586806 4.34722 0 6 0H26C27.6528 0 29.066 0.586806 30.2396 1.76042C31.4132 2.93403 32 4.34722 32 6Z" fill="white"/>
</svg>
