<svg width="36" height="36" viewBox="0 0 36 36" fill="none" xmlns="http://www.w3.org/2000/svg">
<path d="M23.911 2H12.4792C6.6917 2 2 6.63517 2 12.3529V23.6471C2 29.3648 6.6917 34 12.4792 34H23.911C29.6985 34 34.3902 29.3648 34.3902 23.6471V12.3529C34.3902 6.63517 29.6985 2 23.911 2Z" stroke="white" stroke-width="3" stroke-linecap="round" stroke-linejoin="round"/>
<path d="M18.1948 24.7884C21.9893 24.7884 25.0653 21.7494 25.0653 18.0007C25.0653 14.2519 21.9893 11.2129 18.1948 11.2129C14.4003 11.2129 11.3242 14.2519 11.3242 18.0007C11.3242 21.7494 14.4003 24.7884 18.1948 24.7884Z" stroke="white" stroke-width="3" stroke-linecap="round" stroke-linejoin="round"/>
<path d="M27.5211 10.7273C28.6049 10.7273 29.4835 9.85922 29.4835 8.78843C29.4835 7.71765 28.6049 6.84961 27.5211 6.84961C26.4372 6.84961 25.5586 7.71765 25.5586 8.78843C25.5586 9.85922 26.4372 10.7273 27.5211 10.7273Z" fill="white"/>
</svg>
